<?xml version="1.0" standalone="no"?>
<!DOCTYPE svg PUBLIC "-//W3C//DTD SVG 20010904//EN"
 "http://www.w3.org/TR/2001/REC-SVG-20010904/DTD/svg10.dtd">
<svg version="1.0" xmlns="http://www.w3.org/2000/svg"
 width="512.000000pt" height="512.000000pt" viewBox="0 0 512.000000 512.000000"
 preserveAspectRatio="xMidYMid meet" style="background: #DDFFAA">

<g transform="translate(0.000000,512.000000) scale(0.100000,-0.100000)"
fill="#096B30" stroke="none">
<path d="M2730 3630 l0 -800 85 0 85 0 2 595 3 595 560 -585 c308 -322 577
-605 597 -628 l38 -42 0 808 0 807 -80 0 -80 0 -2 -602 -3 -602 -309 325
c-614 643 -888 929 -892 929 -2 0 -4 -360 -4 -800z"/>
<path d="M1537 4384 c-289 -62 -532 -295 -609 -583 -27 -102 -29 -286 -4 -386
91 -357 409 -606 775 -606 216 0 404 81 550 237 118 127 168 254 178 452 l6
112 -322 0 -321 0 0 -80 0 -80 230 0 c194 0 230 -2 230 -15 0 -7 -5 -38 -11
-67 -36 -170 -172 -310 -362 -374 -102 -34 -237 -38 -332 -10 -211 63 -388
240 -451 451 -22 73 -25 236 -5 315 42 177 179 348 341 429 200 99 428 88 608
-28 63 -41 131 -104 175 -161 l26 -34 59 54 c33 30 60 59 61 64 2 16 -176 182
-232 215 -75 44 -164 79 -245 96 -85 19 -257 18 -345 -1z"/>
<path d="M1190 2465 l0 -75 185 0 185 0 0 -695 0 -695 85 0 85 0 0 695 0 695
190 0 190 0 0 75 0 75 -460 0 -460 0 0 -75z"/>
<path d="M2810 1770 l0 -770 85 0 85 0 0 380 0 380 395 0 395 0 0 -380 0 -380
85 0 85 0 0 770 0 770 -85 0 -85 0 0 -315 0 -315 -395 0 -395 0 0 315 0 315
-85 0 -85 0 0 -770z"/>
</g>
</svg>
